# xmcd
#
# Track frame offsets:
#	150
#	15230
#	26515
#	39949
#	53440
#	67562
#	79000
#	89538
#	100825
#	111736
#	125715
#	136357
#	148343
#	158609
#	167802
#	179016
#	190671
#	200303
#	211460
#
# Disc length: 2957 seconds
#
# Revision: 0
# Processed by: cddbd v1.5.2PL0 Copyright (c) Steve Scherf et al.
# Submitted via: EasyCDDAExtractor 8.2.3.1
#
DISCID=000b8b13
DTITLE=Chet Atkins and Hank Snow - Reminiscing +
DYEAR=1964
DGENRE=Country
TTITLE0=Indian love Call
TTITLE1=I Can't Stop Loving You
TTITLE2=Beautiful Dreamer
TTITLE3=Vaya Con Dios
TTITLE4=Sonny Boy
TTITLE5=The Convict And The Rose
TTITLE6=Brahm's Lullaby
TTITLE7=My Isle Of Golden Dreams
TTITLE8=Blue Tango
TTITLE9=Unchained Melody
TTITLE10=In An Old Dutch Garden (By An Old Dutch Mill)
TTITLE11=Dark Moon
TTITLE12=Reminiscing
TTITLE13=Darktown Strutters Ball
TTITLE14=The Old Spinning Wheel
TTITLE15=Under The Double Eagle
TTITLE16=New Spanish Two Step
TTITLE17=Blue Danube Waltz
TTITLE18=Silver Bells
EXTD=
EXTT0=
EXTT1=
EXTT2=
EXTT3=
EXTT4=
EXTT5=
EXTT6=
EXTT7=
EXTT8=
EXTT9=
EXTT10=
EXTT11=
EXTT12=
EXTT13=
EXTT14=
EXTT15=
EXTT16=
EXTT17=
EXTT18=
PLAYORDER=
